<svg width="157" height="261" viewBox="0 0 157 261" fill="none" xmlns="http://www.w3.org/2000/svg">
<path d="M109.836 126.572C109.836 149.576 93.2165 165.714 65.2266 165.714H3.95483V34.4238H58.2728C89.8052 34.4238 105.025 47.6753 105.025 69.7173C105.025 81.3505 98.6833 90.8846 89.1492 95.9577C99.8204 100.112 109.836 111.09 109.836 126.572Z" fill="white"/>
<path d="M65.183 169.124H0.5V31.0117H58.273C101.92 31.0117 108.436 55.2842 108.436 69.7164C108.436 80.0377 103.888 89.3093 95.9719 95.5633C104.85 101.03 113.247 111.351 113.247 126.527C113.247 138.991 108.786 149.619 100.302 157.272C91.7297 165.057 79.5716 169.124 65.183 169.124ZM7.36629 162.258H65.183C90.199 162.258 106.381 148.219 106.381 126.527C106.381 111.614 96.4092 102.43 87.8811 99.1495L80.9273 96.438L87.5312 92.8955C96.3218 88.1722 101.57 79.5129 101.57 69.6727C101.57 43.3448 78.0409 37.7905 58.273 37.7905H7.36629V162.258Z" fill="white"/>
<path d="M108.436 229.61H43.7529V91.498H101.526C145.173 91.498 151.689 115.77 151.689 130.203C151.689 140.524 147.141 149.796 139.225 156.05C148.103 161.516 156.5 171.838 156.5 187.013C156.5 199.478 152.039 210.105 143.555 217.759C134.939 225.543 122.824 229.61 108.436 229.61ZM50.6192 222.744H108.436C133.452 222.744 149.634 208.706 149.634 187.013C149.634 172.1 139.662 162.916 131.134 159.636L124.18 156.924L130.784 153.382C139.575 148.659 144.823 139.999 144.823 130.159C144.823 103.831 121.294 98.2768 101.526 98.2768H50.6192V222.744Z" fill="white"/>
</svg>
